<svg width="960" height="540" viewBox="0 0 960 540" fill="none" xmlns="http://www.w3.org/2000/svg">
  <rect width="960" height="540" rx="28" fill="#111827"/>
  <rect x="32" y="32" width="896" height="476" rx="22" fill="#F8FAFC"/>
  <rect x="32" y="32" width="896" height="64" rx="22" fill="#E5E7EB"/>
  <rect x="32" y="74" width="896" height="22" fill="#E5E7EB"/>
  <circle cx="70" cy="64" r="8" fill="#EF4444"/>
  <circle cx="98" cy="64" r="8" fill="#F59E0B"/>
  <circle cx="126" cy="64" r="8" fill="#22C55E"/>
  <rect x="176" y="54" width="276" height="20" rx="10" fill="#CBD5E1"/>
  <rect x="80" y="142" width="356" height="42" rx="12" fill="#0F172A"/>
  <rect x="80" y="204" width="512" height="16" rx="8" fill="#CBD5E1"/>
  <rect x="80" y="236" width="430" height="16" rx="8" fill="#CBD5E1"/>
  <rect x="80" y="292" width="144" height="42" rx="12" fill="#4F46E5"/>
  <rect x="256" y="292" width="144" height="42" rx="12" fill="#E2E8F0"/>
  <rect x="648" y="136" width="200" height="200" rx="26" fill="#DBEAFE"/>
  <path d="M696 278L738 232L770 264L792 240L836 292H680L696 278Z" fill="#60A5FA"/>
  <circle cx="794" cy="190" r="24" fill="#93C5FD"/>
  <rect x="80" y="394" width="208" height="58" rx="16" fill="#F1F5F9"/>
  <rect x="320" y="394" width="208" height="58" rx="16" fill="#F1F5F9"/>
  <rect x="560" y="394" width="208" height="58" rx="16" fill="#F1F5F9"/>
</svg>
